<svg width="193" height="41" fill="none" xmlns="http://www.w3.org/2000/svg"><rect x="1" y="4" width="36" height="36" rx="5" fill="#2573E8"/><path d="M3 20l7 5m0 0l9-7m0 .5l8 11m0 0l8-14" stroke="#fff"/><circle cx="19" cy="18.5" r="2" fill="#2573E8" stroke="#fff"/><circle cx="3" cy="20.5" r="2" fill="#2573E8" stroke="#fff"/><circle cx="10" cy="24.5" r="2" fill="#2573E8" stroke="#fff"/><circle cx="27" cy="29.5" r="2" fill="#2573E8" stroke="#fff"/><circle cx="35" cy="15.5" r="2" fill="#2573E8" stroke="#fff"/><path d="M57.624 24h2.256V7.2H46.92V24h2.256V9.264h8.448V24zm10.78.192c3.337 0 5.52-2.184 5.52-5.736v-.912c0-3.576-2.16-5.736-5.52-5.736-3.335 0-5.52 2.184-5.52 5.736v.912c0 3.576 2.16 5.736 5.52 5.736zm0-2.064c-1.991 0-3.263-1.272-3.263-3.672v-.912c0-2.424 1.248-3.672 3.264-3.672 1.992 0 3.264 1.272 3.264 3.672v.912c0 2.424-1.248 3.672-3.264 3.672zM84.96 24h2.16V12h-2.784l-4.056 6.96-1.32 2.472V12H76.8v12h2.784l4.056-6.96 1.32-2.472V24zm10.442.192c2.808 0 4.44-1.608 4.92-3.912h-2.304c-.36 1.104-1.104 1.848-2.736 1.848-1.776 0-3.024-1.248-3.024-3.672v-.912c0-2.448 1.224-3.672 3.024-3.672 1.608 0 2.376.768 2.736 1.608h2.304c-.48-2.04-2.112-3.672-4.92-3.672-3.288 0-5.4 2.112-5.4 5.736v.912c0 3.648 2.088 5.736 5.4 5.736zM110.279 24h2.64l-4.464-6.288L112.439 12h-2.544l-3.216 4.776h-1.68V12h-2.16v12h2.16v-5.256h1.656L110.279 24z" fill="#0B132A"/><path d="M121.793 24.216c4.44 0 7.44-2.976 7.44-7.992v-1.248c0-5.04-2.952-7.992-7.44-7.992-4.44 0-7.44 3-7.44 7.992v1.248c0 5.04 2.952 7.992 7.44 7.992zm0-2.688c-2.592 0-4.416-1.824-4.416-5.304v-1.248c0-3.528 1.776-5.304 4.416-5.304 2.568 0 4.416 1.848 4.416 5.304v1.248c0 3.528-1.8 5.304-4.416 5.304zM139.889 24h2.784V12h-10.32v12h2.784v-9.552h4.752V24zm5.173-9.552h3.648V24h2.784v-9.552h3.648V12h-10.08v2.448zM165.563 24h2.784V12h-3.504l-3.432 6.24-1.08 2.232V12h-2.784v12h3.504l3.432-6.24 1.08-2.232V24zm11.594-2.76h2.784l1.488-3.48.936-2.304V24h2.784V12h-3.84l-2.712 6.264L175.933 12h-3.984v12h2.784v-8.544l.936 2.304 1.488 3.48z" fill="#2573E8"/><path d="M49.991 36.375h.858l1.326-2.535.702-1.404V38h.858v-6.5h-1.17l-2.132 4.017-2.132-4.017h-1.196V38h.858v-5.564l.702 1.404 1.326 2.535zm7.51 1.716c.975 0 1.807-.494 2.262-1.313l.13 1.222h.663v-4.42c0-1.365-.806-2.171-2.34-2.171-1.56 0-2.34.78-2.405 1.846h.923c.065-.637.533-1.04 1.482-1.04 1.053 0 1.482.429 1.482 1.365v.585h-1.482c-1.95 0-2.73.78-2.73 2.041 0 1.17.715 1.885 2.015 1.885zm.065-.806c-.78 0-1.196-.416-1.196-1.079 0-.754.507-1.261 1.846-1.261h1.482v.299c0 1.105-.936 2.041-2.132 2.041zm8.04.806c1.483 0 2.549-1.066 2.549-3.055v-.572c0-2.002-1.053-3.055-2.548-3.055-.962 0-1.703.39-2.145 1.183l-.104-1.092h-.663v9.1h.858v-3.549c.442.702 1.157 1.04 2.054 1.04zm-.194-.806c-1.092 0-1.86-.806-1.86-2.249v-.676c.04-1.391.82-2.145 1.86-2.145 1.105 0 1.859.754 1.859 2.249v.572c0 1.508-.741 2.249-1.86 2.249zm8.691.715h1.066l-2.405-3.367L74.91 31.5h-1.066l-1.859 2.73h-1.157V31.5h-.858V38h.858v-2.99h1.157l2.12 2.99zm4.644.091c1.6 0 2.47-.871 2.73-1.989h-.884c-.26.676-.767 1.183-1.846 1.183-1.157 0-1.91-.754-1.91-2.249v-.039h4.705v-.533c0-1.95-1.105-3.055-2.795-3.055s-2.795 1.105-2.795 3.055v.572c0 1.963 1.092 3.055 2.795 3.055zm0-5.876c1.092 0 1.833.676 1.898 2.028h-3.809c.078-1.3.793-2.028 1.911-2.028zm3.582.065h2.17V38h.859v-5.72h2.17v-.78h-5.2v.78zM93.433 38h.858v-6.5h-1.066l-2.6 4.16-.806 1.365V31.5h-.858V38h1.066l2.6-4.16.806-1.352V38zm7.541 0h.858v-6.5h-.858v2.795H97.36V31.5h-.858V38h.859v-2.925h3.613V38zm3.069 0h.858v-5.72h3.302v-.78h-4.16V38zm7.803.091c1.716 0 2.86-1.144 2.86-3.055v-.572c0-1.924-1.131-3.055-2.86-3.055-1.716 0-2.86 1.144-2.86 3.055v.572c0 1.924 1.131 3.055 2.86 3.055zm0-.806c-1.157 0-1.976-.819-1.976-2.249v-.572c0-1.443.806-2.249 1.976-2.249 1.157 0 1.976.819 1.976 2.249v.572c0 1.443-.806 2.249-1.976 2.249zm4.677.715h2.665c1.573 0 2.275-.702 2.275-1.859 0-.663-.364-1.222-1.092-1.508.559-.312.832-.793.832-1.352 0-1.079-.702-1.781-2.275-1.781h-2.405V38zm2.665-2.925c1.014 0 1.391.377 1.391 1.066 0 .702-.377 1.079-1.391 1.079h-1.807v-2.145h1.807zm-.26-2.795c1.014 0 1.391.377 1.391 1.001 0 .637-.377 1.014-1.391 1.014h-1.547V32.28h1.547zm6.819 5.811c1.716 0 2.86-1.144 2.86-3.055v-.572c0-1.924-1.131-3.055-2.86-3.055-1.716 0-2.86 1.144-2.86 3.055v.572c0 1.924 1.131 3.055 2.86 3.055zm0-.806c-1.157 0-1.976-.819-1.976-2.249v-.572c0-1.443.806-2.249 1.976-2.249 1.157 0 1.976.819 1.976 2.249v.572c0 1.443-.806 2.249-1.976 2.249zm7.082.806c1.599 0 2.47-.871 2.73-1.989h-.884c-.26.676-.767 1.183-1.846 1.183-1.157 0-1.911-.754-1.911-2.249v-.039h4.706v-.533c0-1.95-1.105-3.055-2.795-3.055s-2.795 1.105-2.795 3.055v.572c0 1.963 1.092 3.055 2.795 3.055zm0-5.876c1.092 0 1.833.676 1.898 2.028h-3.809c.078-1.3.793-2.028 1.911-2.028zm9.426 5.876c.975 0 1.807-.494 2.262-1.313l.13 1.222h.663v-4.42c0-1.365-.806-2.171-2.34-2.171-1.56 0-2.34.78-2.405 1.846h.923c.065-.637.533-1.04 1.482-1.04 1.053 0 1.482.429 1.482 1.365v.585h-1.482c-1.95 0-2.73.78-2.73 2.041 0 1.17.715 1.885 2.015 1.885zm.065-.806c-.78 0-1.196-.416-1.196-1.079 0-.754.507-1.261 1.846-1.261h1.482v.299c0 1.105-.936 2.041-2.132 2.041zm5.129.715h.858v-5.72h3.302v-.78h-4.16V38zm7.737.091c1.599 0 2.47-.871 2.73-1.989h-.884c-.26.676-.767 1.183-1.846 1.183-1.157 0-1.911-.754-1.911-2.249v-.039h4.706v-.533c0-1.95-1.105-3.055-2.795-3.055s-2.795 1.105-2.795 3.055v.572c0 1.963 1.092 3.055 2.795 3.055zm0-5.876c1.092 0 1.833.676 1.898 2.028h-3.809c.078-1.3.793-2.028 1.911-2.028zM164.273 38h.858v-6.5h-.858v2.795h-3.614V31.5h-.858V38h.858v-2.925h3.614V38zm5.474.091c1.443 0 2.275-.832 2.535-1.976h-.91c-.26.728-.702 1.17-1.625 1.17-1.092 0-1.911-.819-1.911-2.249v-.572c0-1.443.806-2.249 1.911-2.249.923 0 1.365.442 1.625 1.04h.91c-.26-1.014-1.092-1.846-2.535-1.846-1.651 0-2.795 1.144-2.795 3.055v.572c0 1.924 1.131 3.055 2.795 3.055zm3.125-5.811h2.171V38h.858v-5.72h2.171v-.78h-5.2v.78zm6.632 5.72h2.665c1.573 0 2.275-.702 2.275-1.859 0-.663-.364-1.222-1.092-1.508.559-.312.832-.793.832-1.352 0-1.079-.702-1.781-2.275-1.781h-2.405V38zm2.665-2.925c1.014 0 1.391.377 1.391 1.066 0 .702-.377 1.079-1.391 1.079h-1.807v-2.145h1.807zm-.26-2.795c1.014 0 1.391.377 1.391 1.001 0 .637-.377 1.014-1.391 1.014h-1.547V32.28h1.547zm6.819 5.811c1.716 0 2.86-1.144 2.86-3.055v-.572c0-1.924-1.131-3.055-2.86-3.055-1.716 0-2.86 1.144-2.86 3.055v.572c0 1.924 1.131 3.055 2.86 3.055zm0-.806c-1.157 0-1.976-.819-1.976-2.249v-.572c0-1.443.806-2.249 1.976-2.249 1.157 0 1.976.819 1.976 2.249v.572c0 1.443-.806 2.249-1.976 2.249z" fill="#0B132A"/></svg>