<svg width="193" height="41" viewBox="0 0 193 41" fill="none" xmlns="http://www.w3.org/2000/svg">
<rect x="1" y="4" width="36" height="36" rx="5" fill="#2573E8"/>
<path d="M3 20L10 25" stroke="white"/>
<path d="M10 25L19 18" stroke="white"/>
<path d="M19 18.5L27 29.5" stroke="white"/>
<path d="M27 29.5L35 15.5" stroke="white"/>
<circle cx="19" cy="18.5" r="2" fill="#2573E8" stroke="white"/>
<circle cx="3" cy="20.5" r="2" fill="#2573E8" stroke="white"/>
<circle cx="10" cy="24.5" r="2" fill="#2573E8" stroke="white"/>
<circle cx="27" cy="29.5" r="2" fill="#2573E8" stroke="white"/>
<circle cx="35" cy="15.5" r="2" fill="#2573E8" stroke="white"/>
<path d="M57.624 24H59.88V7.2H46.92V24H49.176V9.264H57.624V24ZM68.4047 24.192C71.7407 24.192 73.9247 22.008 73.9247 18.456V17.544C73.9247 13.968 71.7647 11.808 68.4047 11.808C65.0687 11.808 62.8847 13.992 62.8847 17.544V18.456C62.8847 22.032 65.0447 24.192 68.4047 24.192ZM68.4047 22.128C66.4127 22.128 65.1407 20.856 65.1407 18.456V17.544C65.1407 15.12 66.3887 13.872 68.4047 13.872C70.3967 13.872 71.6687 15.144 71.6687 17.544V18.456C71.6687 20.88 70.4207 22.128 68.4047 22.128ZM84.96 24H87.12V12H84.336L80.28 18.96L78.96 21.432V12H76.8V24H79.584L83.64 17.04L84.96 14.568V24ZM95.4019 24.192C98.2099 24.192 99.8419 22.584 100.322 20.28H98.0179C97.6579 21.384 96.9139 22.128 95.2819 22.128C93.5059 22.128 92.2579 20.88 92.2579 18.456V17.544C92.2579 15.096 93.4819 13.872 95.2819 13.872C96.8899 13.872 97.6579 14.64 98.0179 15.48H100.322C99.8419 13.44 98.2099 11.808 95.4019 11.808C92.1139 11.808 90.0019 13.92 90.0019 17.544V18.456C90.0019 22.104 92.0899 24.192 95.4019 24.192ZM110.279 24H112.919L108.455 17.712L112.439 12H109.895L106.679 16.776H104.999V12H102.839V24H104.999V18.744H106.655L110.279 24Z" fill="#0B132A"/>
<path d="M121.793 24.216C126.233 24.216 129.233 21.24 129.233 16.224V14.976C129.233 9.936 126.281 6.984 121.793 6.984C117.353 6.984 114.353 9.984 114.353 14.976V16.224C114.353 21.264 117.305 24.216 121.793 24.216ZM121.793 21.528C119.201 21.528 117.377 19.704 117.377 16.224V14.976C117.377 11.448 119.153 9.672 121.793 9.672C124.361 9.672 126.209 11.52 126.209 14.976V16.224C126.209 19.752 124.409 21.528 121.793 21.528ZM139.889 24H142.673V12H132.353V24H135.137V14.448H139.889V24ZM145.062 14.448H148.71V24H151.494V14.448H155.142V12H145.062V14.448ZM165.563 24H168.347V12H164.843L161.411 18.24L160.331 20.472V12H157.547V24H161.051L164.483 17.76L165.563 15.528V24ZM177.157 21.24H179.941L181.429 17.76L182.365 15.456V24H185.149V12H181.309L178.597 18.264L175.933 12H171.949V24H174.733V15.456L175.669 17.76L177.157 21.24Z" fill="#2573E8"/>
<path d="M49.991 36.375H50.849L52.175 33.84L52.877 32.436V38H53.735V31.5H52.565L50.433 35.517L48.301 31.5H47.105V38H47.963V32.436L48.665 33.84L49.991 36.375ZM57.5009 38.091C58.4759 38.091 59.3079 37.597 59.7629 36.778L59.8929 38H60.5559V33.58C60.5559 32.215 59.7499 31.409 58.2159 31.409C56.6559 31.409 55.8759 32.189 55.8109 33.255H56.7339C56.7989 32.618 57.2669 32.215 58.2159 32.215C59.2689 32.215 59.6979 32.644 59.6979 33.58V34.165H58.2159C56.2659 34.165 55.4859 34.945 55.4859 36.206C55.4859 37.376 56.2009 38.091 57.5009 38.091ZM57.5659 37.285C56.7859 37.285 56.3699 36.869 56.3699 36.206C56.3699 35.452 56.8769 34.945 58.2159 34.945H59.6979V35.244C59.6979 36.349 58.7619 37.285 57.5659 37.285ZM65.6068 38.091C67.0888 38.091 68.1548 37.025 68.1548 35.036V34.464C68.1548 32.462 67.1018 31.409 65.6068 31.409C64.6448 31.409 63.9038 31.799 63.4618 32.592L63.3578 31.5H62.6948V40.6H63.5528V37.051C63.9948 37.753 64.7098 38.091 65.6068 38.091ZM65.4118 37.285C64.3198 37.285 63.5528 36.479 63.5528 35.036V34.36C63.5918 32.969 64.3718 32.215 65.4118 32.215C66.5168 32.215 67.2708 32.969 67.2708 34.464V35.036C67.2708 36.544 66.5298 37.285 65.4118 37.285ZM74.1033 38H75.1693L72.7643 34.633L74.9093 31.5H73.8433L71.9843 34.23H70.8273V31.5H69.9693V38H70.8273V35.01H71.9843L74.1033 38ZM78.7473 38.091C80.3463 38.091 81.2173 37.22 81.4773 36.102H80.5933C80.3333 36.778 79.8263 37.285 78.7473 37.285C77.5903 37.285 76.8363 36.531 76.8363 35.036V34.997H81.5423V34.464C81.5423 32.514 80.4373 31.409 78.7473 31.409C77.0573 31.409 75.9523 32.514 75.9523 34.464V35.036C75.9523 36.999 77.0443 38.091 78.7473 38.091ZM78.7473 32.215C79.8393 32.215 80.5803 32.891 80.6453 34.243H76.8363C76.9143 32.943 77.6293 32.215 78.7473 32.215ZM82.3289 32.28H84.4999V38H85.3579V32.28H87.5289V31.5H82.3289V32.28ZM93.4334 38H94.2914V31.5H93.2254L90.6254 35.66L89.8194 37.025V31.5H88.9614V38H90.0274L92.6274 33.84L93.4334 32.488V38ZM100.974 38H101.832V31.5H100.974V34.295H97.3605V31.5H96.5025V38H97.3605V35.075H100.974V38ZM104.043 38H104.901V32.28H108.203V31.5H104.043V38ZM111.846 38.091C113.562 38.091 114.706 36.947 114.706 35.036V34.464C114.706 32.54 113.575 31.409 111.846 31.409C110.13 31.409 108.986 32.553 108.986 34.464V35.036C108.986 36.96 110.117 38.091 111.846 38.091ZM111.846 37.285C110.689 37.285 109.87 36.466 109.87 35.036V34.464C109.87 33.021 110.676 32.215 111.846 32.215C113.003 32.215 113.822 33.034 113.822 34.464V35.036C113.822 36.479 113.016 37.285 111.846 37.285ZM116.523 38H119.188C120.761 38 121.463 37.298 121.463 36.141C121.463 35.478 121.099 34.919 120.371 34.633C120.93 34.321 121.203 33.84 121.203 33.281C121.203 32.202 120.501 31.5 118.928 31.5H116.523V38ZM119.188 35.075C120.202 35.075 120.579 35.452 120.579 36.141C120.579 36.843 120.202 37.22 119.188 37.22H117.381V35.075H119.188ZM118.928 32.28C119.942 32.28 120.319 32.657 120.319 33.281C120.319 33.918 119.942 34.295 118.928 34.295H117.381V32.28H118.928ZM125.747 38.091C127.463 38.091 128.607 36.947 128.607 35.036V34.464C128.607 32.54 127.476 31.409 125.747 31.409C124.031 31.409 122.887 32.553 122.887 34.464V35.036C122.887 36.96 124.018 38.091 125.747 38.091ZM125.747 37.285C124.59 37.285 123.771 36.466 123.771 35.036V34.464C123.771 33.021 124.577 32.215 125.747 32.215C126.904 32.215 127.723 33.034 127.723 34.464V35.036C127.723 36.479 126.917 37.285 125.747 37.285ZM132.829 38.091C134.428 38.091 135.299 37.22 135.559 36.102H134.675C134.415 36.778 133.908 37.285 132.829 37.285C131.672 37.285 130.918 36.531 130.918 35.036V34.997H135.624V34.464C135.624 32.514 134.519 31.409 132.829 31.409C131.139 31.409 130.034 32.514 130.034 34.464V35.036C130.034 36.999 131.126 38.091 132.829 38.091ZM132.829 32.215C133.921 32.215 134.662 32.891 134.727 34.243H130.918C130.996 32.943 131.711 32.215 132.829 32.215ZM142.255 38.091C143.23 38.091 144.062 37.597 144.517 36.778L144.647 38H145.31V33.58C145.31 32.215 144.504 31.409 142.97 31.409C141.41 31.409 140.63 32.189 140.565 33.255H141.488C141.553 32.618 142.021 32.215 142.97 32.215C144.023 32.215 144.452 32.644 144.452 33.58V34.165H142.97C141.02 34.165 140.24 34.945 140.24 36.206C140.24 37.376 140.955 38.091 142.255 38.091ZM142.32 37.285C141.54 37.285 141.124 36.869 141.124 36.206C141.124 35.452 141.631 34.945 142.97 34.945H144.452V35.244C144.452 36.349 143.516 37.285 142.32 37.285ZM147.449 38H148.307V32.28H151.609V31.5H147.449V38ZM155.186 38.091C156.785 38.091 157.656 37.22 157.916 36.102H157.032C156.772 36.778 156.265 37.285 155.186 37.285C154.029 37.285 153.275 36.531 153.275 35.036V34.997H157.981V34.464C157.981 32.514 156.876 31.409 155.186 31.409C153.496 31.409 152.391 32.514 152.391 34.464V35.036C152.391 36.999 153.483 38.091 155.186 38.091ZM155.186 32.215C156.278 32.215 157.019 32.891 157.084 34.243H153.275C153.353 32.943 154.068 32.215 155.186 32.215ZM164.273 38H165.131V31.5H164.273V34.295H160.659V31.5H159.801V38H160.659V35.075H164.273V38ZM169.747 38.091C171.19 38.091 172.022 37.259 172.282 36.115H171.372C171.112 36.843 170.67 37.285 169.747 37.285C168.655 37.285 167.836 36.466 167.836 35.036V34.464C167.836 33.021 168.642 32.215 169.747 32.215C170.67 32.215 171.112 32.657 171.372 33.255H172.282C172.022 32.241 171.19 31.409 169.747 31.409C168.096 31.409 166.952 32.553 166.952 34.464V35.036C166.952 36.96 168.083 38.091 169.747 38.091ZM172.872 32.28H175.043V38H175.901V32.28H178.072V31.5H172.872V32.28ZM179.504 38H182.169C183.742 38 184.444 37.298 184.444 36.141C184.444 35.478 184.08 34.919 183.352 34.633C183.911 34.321 184.184 33.84 184.184 33.281C184.184 32.202 183.482 31.5 181.909 31.5H179.504V38ZM182.169 35.075C183.183 35.075 183.56 35.452 183.56 36.141C183.56 36.843 183.183 37.22 182.169 37.22H180.362V35.075H182.169ZM181.909 32.28C182.923 32.28 183.3 32.657 183.3 33.281C183.3 33.918 182.923 34.295 181.909 34.295H180.362V32.28H181.909ZM188.728 38.091C190.444 38.091 191.588 36.947 191.588 35.036V34.464C191.588 32.54 190.457 31.409 188.728 31.409C187.012 31.409 185.868 32.553 185.868 34.464V35.036C185.868 36.96 186.999 38.091 188.728 38.091ZM188.728 37.285C187.571 37.285 186.752 36.466 186.752 35.036V34.464C186.752 33.021 187.558 32.215 188.728 32.215C189.885 32.215 190.704 33.034 190.704 34.464V35.036C190.704 36.479 189.898 37.285 188.728 37.285Z" fill="#0B132A"/>
</svg>
