<svg width="18" height="16" viewBox="0 0 18 16" fill="none" xmlns="http://www.w3.org/2000/svg">
<path d="M14.7778 0H3.22222C1.99492 0 1 0.994923 1 2.22222V13.7778C1 15.0051 1.99492 16 3.22222 16H14.7778C16.0051 16 17 15.0051 17 13.7778V2.22222C17 0.994923 16.0051 0 14.7778 0Z" fill="#2573E8"/>
<path d="M1.88867 7.11133L4.99978 9.33355" stroke="white"/>
<path d="M5 9.33328L9 6.22217" stroke="white"/>
<path d="M9 6.44434L12.5556 11.3332" stroke="white"/>
<path d="M12.5557 11.3336L16.1112 5.11133" stroke="white"/>
<path d="M9.00022 7.33344C9.49114 7.33344 9.88911 6.93547 9.88911 6.44455C9.88911 5.95363 9.49114 5.55566 9.00022 5.55566C8.5093 5.55566 8.11133 5.95363 8.11133 6.44455C8.11133 6.93547 8.5093 7.33344 9.00022 7.33344Z" fill="#2573E8" stroke="white"/>
<path d="M1.88889 8.22211C2.37981 8.22211 2.77778 7.82414 2.77778 7.33322C2.77778 6.84231 2.37981 6.44434 1.88889 6.44434C1.39797 6.44434 1 6.84231 1 7.33322C1 7.82414 1.39797 8.22211 1.88889 8.22211Z" fill="#2573E8" stroke="white"/>
<path d="M5.00022 9.99995C5.49114 9.99995 5.88911 9.60198 5.88911 9.11106C5.88911 8.62014 5.49114 8.22217 5.00022 8.22217C4.5093 8.22217 4.11133 8.62014 4.11133 9.11106C4.11133 9.60198 4.5093 9.99995 5.00022 9.99995Z" fill="#2573E8" stroke="white"/>
<path d="M12.5559 12.2221C13.0468 12.2221 13.4448 11.8241 13.4448 11.3332C13.4448 10.8423 13.0468 10.4443 12.5559 10.4443C12.065 10.4443 11.667 10.8423 11.667 11.3332C11.667 11.8241 12.065 12.2221 12.5559 12.2221Z" fill="#2573E8" stroke="white"/>
<path d="M16.1115 5.99995C16.6025 5.99995 17.0004 5.60198 17.0004 5.11106C17.0004 4.62014 16.6025 4.22217 16.1115 4.22217C15.6206 4.22217 15.2227 4.62014 15.2227 5.11106C15.2227 5.60198 15.6206 5.99995 16.1115 5.99995Z" fill="#2573E8" stroke="white"/>
</svg>
