<svg width="18" height="16" fill="none" xmlns="http://www.w3.org/2000/svg"><path d="M14.778 0H3.222A2.222 2.222 0 001 2.222v11.556C1 15.005 1.995 16 3.222 16h11.556A2.222 2.222 0 0017 13.778V2.222A2.222 2.222 0 0014.778 0z" fill="#2573E8"/><path d="M1.889 7.111l3.11 2.223M5 9.333l4-3.11m0 .221l3.556 4.89m0 0L16.11 5.11" stroke="#fff"/><path d="M9 7.333a.889.889 0 100-1.777.889.889 0 000 1.777zm-7.111.889a.889.889 0 100-1.778.889.889 0 000 1.778zM5 10a.889.889 0 100-1.778A.889.889 0 005 10zm7.556 2.222a.889.889 0 100-1.778.889.889 0 000 1.778zM16.111 6a.889.889 0 100-1.778.889.889 0 000 1.778z" fill="#2573E8" stroke="#fff"/></svg>