<svg xmlns="http://www.w3.org/2000/svg" fill="none" viewBox="0 0 336 391"><path fill="#AFCDFB" d="M145.779 67.585L336 8.447 189.675 109.825l-43.896-42.24z"/><path fill="#AFCDFB" d="M336 8.448L131.146 42.24 87.249 0 336 8.448z"/><path fill="#5B77AC" d="M131.146 42.24v50.691l14.633-25.345L336 8.448 131.146 42.24z"/><path fill="#AFCDFB" d="M131.146 92.931l29.266-11.264-14.633-14.081-14.633 25.345z"/><path fill="#5B77AC" d="M145.779 67.585l14.633 14.082-4.669 1.793-9.964-15.875z"/><path fill="#DADBD8" d="M108.038 75.193a186.411 186.411 0 00-9.745 5.018 2.702 2.702 0 002.611 4.73c3.223-1.78 6.386-3.4 9.462-4.87a2.703 2.703 0 00-2.328-4.878zM83.103 89.505a207.567 207.567 0 00-17.09 12.835 2.704 2.704 0 003.464 4.15 202.429 202.429 0 0116.644-12.504 2.7 2.7 0 00.732-3.75 2.704 2.704 0 00-3.75-.73zm-30.254 24.841a193.353 193.353 0 00-14.297 15.911 2.701 2.701 0 104.215 3.379 187.059 187.059 0 0113.897-15.461 2.704 2.704 0 00.007-3.822 2.706 2.706 0 00-3.822-.007zm-24.772 30.349a173.804 173.804 0 00-10.589 18.617 2.7 2.7 0 001.239 3.613 2.7 2.7 0 003.614-1.236 168.788 168.788 0 0110.26-18.04 2.701 2.701 0 10-4.524-2.954zm-17.584 35.046a168.428 168.428 0 00-6.035 20.558 2.698 2.698 0 002.04 3.228 2.698 2.698 0 003.23-2.039 162.982 162.982 0 015.842-19.895 2.702 2.702 0 10-5.077-1.852zm-9.06 38.145A197.147 197.147 0 000 239.218a2.7 2.7 0 002.667 2.734 2.7 2.7 0 002.737-2.665c.088-6.964.558-13.902 1.393-20.749a2.701 2.701 0 10-5.364-.652zM.59 257.031a186.133 186.133 0 002.908 21.203 2.703 2.703 0 003.174 2.129 2.703 2.703 0 002.127-3.174 180.974 180.974 0 01-2.823-20.583 2.702 2.702 0 00-5.386.425zm7.233 38.519a165.082 165.082 0 007.55 20.057 2.702 2.702 0 104.922-2.229 159.76 159.76 0 01-7.304-19.402 2.702 2.702 0 10-5.168 1.574zm15.852 35.893A148.194 148.194 0 0036.03 349a2.696 2.696 0 003.8.378 2.698 2.698 0 00.379-3.8 142.6 142.6 0 01-11.902-16.92 2.7 2.7 0 00-3.707-.922 2.701 2.701 0 00-.925 3.707zm24.533 30.676a145.01 145.01 0 0016.616 13.603 2.7 2.7 0 103.106-4.42 140.096 140.096 0 01-15.998-13.098 2.702 2.702 0 00-3.724 3.915zm31.97 23.066a159.768 159.768 0 009.862 4.859 2.696 2.696 0 003.572-1.351 2.7 2.7 0 00-1.35-3.573 156.058 156.058 0 01-9.528-4.698 2.703 2.703 0 00-2.556 4.763z"/></svg>