<svg xmlns="http://www.w3.org/2000/svg" fill="none" viewBox="0 0 182 263"><path fill="#AFCDFB" d="M.401 262.011l125.795-80.563 55.415 17.79L.401 262.011zm0 0l108.727-90.672-24.16-27.899L.4 262.011z"/><path fill="#5B77AC" d="M109.128 171.339v21.041L.401 262.011l108.727-90.672z"/><path fill="#DADBD8" d="M102.799 4.215a153.622 153.622 0 0113.461 11.3 2.231 2.231 0 003.063-3.242 158.43 158.43 0 00-13.85-11.63 2.231 2.231 0 00-2.674 3.572zm23.569 21.876a128.515 128.515 0 0110.511 14.023 2.232 2.232 0 003.747-2.424 133.834 133.834 0 00-10.873-14.507 2.233 2.233 0 00-3.385 2.908zm17.678 26.725a110.517 110.517 0 016.382 16.265 2.23 2.23 0 104.271-1.294 115.727 115.727 0 00-6.638-16.92 2.232 2.232 0 00-4.015 1.949zm9.621 30.442a98.309 98.309 0 011.145 17.389 2.234 2.234 0 002.177 2.284 2.234 2.234 0 002.284-2.177 103.006 103.006 0 00-1.199-18.18 2.23 2.23 0 00-4.407.684zm-.321 31.822a90.307 90.307 0 01-4.723 16.732 2.227 2.227 0 001.267 2.887 2.228 2.228 0 002.888-1.267 94.646 94.646 0 004.957-17.555 2.231 2.231 0 00-4.389-.797zm-11.067 29.758a90.01 90.01 0 01-10.26 14.028 2.23 2.23 0 003.334 2.968 94.606 94.606 0 0010.766-14.724 2.232 2.232 0 00-.782-3.055 2.234 2.234 0 00-3.058.783z"/></svg>